<?xml version="1.0" encoding="utf-8"?>
<!-- Generator: Adobe Illustrator 23.0.5, SVG Export Plug-In . SVG Version: 6.00 Build 0)  -->
<svg version="1.1" id="Layer_1" xmlns="http://www.w3.org/2000/svg" xmlns:xlink="http://www.w3.org/1999/xlink" x="0px" y="0px"
	 viewBox="0 0 298.9 320.7" style="enable-background:new 0 0 298.9 320.7;" xml:space="preserve">
<style type="text/css">
	.st0{fill:#EAEDFF;}
	.st1{fill:#5640E5;}
	.st2{opacity:0.181;enable-background:new    ;}
	.st3{fill:#7F90F2;}
	.st4{fill:#F09087;}
	.st5{fill:#474562;}
	.st6{fill:#EF515F;}
	.st7{fill:#F7AB9D;}
	.st8{fill:#FFFFFF;}
	.st9{fill:#40405A;}
	.st10{fill:#2F2D44;}
	.st11{fill:#353353;}
	.st12{fill:#595872;}
	.st13{fill:#C7C7CB;}
	.st14{fill:#C1C1C6;}
	.st15{fill:#9F4835;}
	.st16{fill:#444B54;}
</style>
<g id="Group_103" transform="translate(2029 264.443)">
	<path id="Path_125" class="st0" d="M-1879.5-247.4c82.5,0,149.5,66.9,149.5,149.5S-1797,51.5-1879.5,51.5
		c-82.5,0-149.5-66.9-149.5-149.5S-1962.1-247.4-1879.5-247.4C-1879.5-247.4-1879.5-247.4-1879.5-247.4z"/>
	<g id="Group_102" transform="translate(-2024.018 -264.443)">
		<g id="Group_75" transform="translate(0 81.258)">
			<path id="Path_58" class="st1" d="M285.1,172.1c-8.8,37.6-33,66.4-58.5,66.4H54.3C-13.6,224.1-7.1,110.3,16.2,95.4
				c4.4-2.8,9.1-5,14.1-6.6c17.2-5.3,30.9-0.4,30.9-0.4S61.9,39,81.2,22c36.6-32.3,108.1-25.9,153.9-1.5c3.7,1.9,7.2,4,10.5,6.2
				C290.2,55.9,293.9,134.4,285.1,172.1z"/>
			<path id="Path_59" class="st2" d="M224.7,163.7c-28.8,23.7-89.2,37.6-141.2,20.4s-60.8-50.6-59-73.4c0.9-11.3,3.4-18,5.8-21.9
				c17.2-5.3,30.9-0.4,30.9-0.4S61.9,39,81.2,22C109.3-2.8,158.1-4.7,199.9,6.7c26.9,7.4,45.3,32,44.8,59.9c0,0.1,0,0.3,0,0.4
				c-0.5,21.4-9.8,21.8-9.8,21.8s6,3.7,13.9,16.3S253.5,140,224.7,163.7z"/>
			<path id="Path_60" class="st3" d="M204.3,206.4c0,0-0.7,24.4,20.2,21.6c22.4-3,54.3-43.2,52.3-89.2c-4.2-9.8-12-2.1-21.6,14.6
				C235.6,187.6,215.4,185.5,204.3,206.4z"/>
		</g>
		<g id="Group_101" transform="translate(22.89)">
			<g id="Group_77" transform="translate(58.767 79.226)">
				<path id="Path_61" class="st4" d="M10.9,45.7c0,0-5.9,14.2-7,18.8s-2.2,9.9-0.3,13.1c13.5-3.7,21.8-6.5,21.8-6.5l10.1-18.8
					L10.9,45.7z"/>
				<path id="Path_62" class="st4" d="M5,82.8c0,0-6-9.8,2.6-16.7c9.8-7.9,20.7,2.8,18.9,10.1S12.7,91.3,5,82.8z"/>
				<path id="Path_63" class="st5" d="M27.2,1.1C22,3,8.3,40.6,5.3,52.2c14,4.1,28.3,9.9,28.3,9.9s11.9-18.8,11.9-36.5
					S40-3.7,27.2,1.1z"/>
				<g id="Group_76" transform="translate(0 71.029)">
					<path id="Path_64" class="st6" d="M16.7,1.8l5.7,5.7c0,0,3.3-3.9,4.8-4.7c2-0.8,4.2-0.8,6.1,0.1c1.2,0.8,1.4,2.3-0.2,2.8
						c-1.6,0.5-3.1,1.4-4.3,2.6c-0.3,0.4-4.5,5.3-6.7,5.9s-8.7,0.2-8.7,0.2S7.9,4.6,16.7,1.8z"/>
					<path id="Path_65" class="st7" d="M17.6,18.1c-1.9,0.6-2.3-2-2.3-2c-0.4,0.5-1,0.8-1.6,0.8c-0.8,0.1-1.6,0-2.3-0.4
						c-0.2,0.6-0.6,1.1-1,1.5c-1.2,1-3,0.3-5.8-3.3c-0.1,2.6,0.3,5.2,1.3,7.5c0.4,0.6,0.3,1.4-0.1,2c-0.3,0.3-0.9,0.4-1.3,0.2
						C0.9,23.2,0,14,0,13c0-0.5,0.9-1,1.8-1.3c0.6-0.2,1.3-0.4,1.9-0.5l0,0l0,0c-0.2-1,0.2-2,1.1-2.6C6.3,7.4,7.2,8,7.2,8
						s0-2.7,0.8-3.6s3.6-0.9,3.6-0.9c0.5-1.4,1-2.9,2.7-3.4s2.4,1.7,2.4,1.7s0.6,3.5,0.9,6.5S19.5,17.5,17.6,18.1z"/>
					<path id="Path_66" class="st4" d="M5.8,24.4c-0.8-0.9-1.5-1.8-2-2.9c-1.3-3.1-2-6.4-2.1-9.8c0.6-0.2,1.3-0.4,1.9-0.5
						c0,0-0.1,0.5,0.9,3.7c-0.1,2.6,0.3,5.2,1.3,7.5C6.3,23,6.2,23.8,5.8,24.4z"/>
					<path id="Path_67" class="st4" d="M11.5,16.6c-0.2,0.6-0.6,1.1-1,1.5C9.2,17,7.6,14.5,7.5,9.2C8.1,11.9,9.5,14.5,11.5,16.6z"/>
					<path id="Path_68" class="st4" d="M15.3,16.1c-0.4,0.5-1,0.8-1.6,0.8c-1.7-3.6-2.3-7.6-1.8-11.6C12.5,8.2,15.3,16.1,15.3,16.1z
						"/>
				</g>
			</g>
			<g id="Group_78" transform="translate(79.696 224.867)">
				<path id="Path_69" class="st8" d="M7.8,8.1l-2.3,1.9c-0.7,0.6-1.1,1.5-1,2.4c0.2,3.6,0.2,7.2,0,10.8C4.3,26.8,0.5,35,0.1,39.3
					s1.6,9.9,3.7,14.3s7.4,7.4,7.4,7.4s4.1,0.2,5.1-1.2C13.7,45.9,11.6,10.8,7.8,8.1z"/>
				<path id="Path_70" class="st9" d="M29.9,24.5c-1.9,3.4-3.9,15.9-5,21.9S18.1,62.4,14,59.7c-1.9-1.2-4.2-4.7-6.1-8.5
					c-0.5-1.1-1-2.1-1.5-3.2c-1.3-2.7-2.1-5.5-2.6-8.4c-0.3-4.5,4.3-14.3,4.4-18.8S6.7,9.2,7.8,8.1s11-8.1,11-8.1s2.7,4.9,5.6,10.8
					c0.4,0.7,0.7,1.4,1.1,2.2C29,20.3,30.9,22.8,29.9,24.5z"/>
				<path id="Path_71" class="st10" d="M25.5,13c-3,3.9-6.3,8.6-7.4,12.2c-2.1,7.2-2.3,10.9-4.4,17c-1.3,3.4-3.2,6.4-5.7,9
					c-0.5-1.1-1-2.1-1.5-3.2c2-2,4.2-4.3,4.9-6.1c1.6-3.7,2.6-10.5,4.2-17.7c0.8-3.7,5-9.1,8.9-13.4C24.8,11.5,25.1,12.3,25.5,13z"
					/>
				<path id="Path_72" class="st8" d="M19.2,21.7l11.1,8.3c1.2,0.9,2.8,0.6,3.7-0.5c0.1-0.2,0.2-0.4,0.3-0.5l0,0
					c0.3-0.8,0-1.7-0.7-2.1l-12.5-7.9c-0.8-0.5-1.8-0.3-2.3,0.5c-0.1,0.2-0.2,0.4-0.2,0.6l0,0C18.4,20.6,18.7,21.3,19.2,21.7z"/>
				<path id="Path_73" class="st8" d="M12.7,36.5l5.3,4l3.8,2.8c0.7,0.6,1.4,1.2,2.2,1.6c1,0.4,2.1,0,2.7-0.8
					c1.7-2.8-4.2-5.3-5.9-6.4l-6.2-4c-0.8-0.5-1.8-0.3-2.3,0.5c-0.1,0.2-0.2,0.4-0.2,0.6C11.9,35.5,12.1,36.1,12.7,36.5z"/>
				<path id="Path_74" class="st8" d="M15.2,29.3l5.6,4.1l3.8,2.8c0.9,0.7,2,1.9,3.3,1.6c0.3-0.1,0.6-0.2,0.8-0.4
					c0.7-0.6,0.9-1.6,0.6-2.4c-0.4-1.3-2.1-2.2-3.2-2.8l-4-2.5l-5-3.2c-0.8-0.5-1.8-0.3-2.3,0.5c-0.1,0.2-0.2,0.4-0.2,0.6
					C14.4,28.3,14.6,28.9,15.2,29.3z"/>
			</g>
			<g id="Group_79" transform="translate(0 291.734)">
				<path id="Path_75" class="st9" d="M72.9,29H2.4C1.1,29,0,27.9,0,26.6c0-0.2,0-0.5,0.1-0.7c0.1-0.4,0.3-0.9,0.5-1.3
					c0.8-2.1,2-4.3,3.7-5.1c5.5-2.5,10.8-5.6,15.6-9.1c2.9-2.2,5.7-4.5,8.4-7c2.8-2.2,9.1-3.2,15.7-3.3c0.9,0,1.8,0,2.7,0
					c7.4,0.3,14.4,1.8,16.2,4.5c2.4,3.7,6.3,14,8.5,20C72.2,27.2,72.9,29,72.9,29z"/>
				<path id="Path_76" class="st10" d="M46.6,0C42,5.4,36.2,11.6,31.8,14.3C24.3,19,20.1,19.7,16,29h-2.5c1.3-2.8,3.2-6.2,5.4-8.2
					c4-3.6,15-10.1,20.6-15.9C41,3.4,42.5,1.7,43.9,0C44.8,0,45.7,0,46.6,0z"/>
				<path id="Path_77" class="st8" d="M18.4,13l6.4,4.4c0.7,0.5,1.6,0.4,2.2-0.1l0,0c0.8-0.6,0.9-1.8,0.2-2.6
					c-0.1-0.1-0.2-0.2-0.3-0.3l-6-4.7c-0.6-0.5-1.5-0.5-2.2-0.1L18.3,10c-0.8,0.6-1,1.7-0.4,2.5C18,12.7,18.2,12.9,18.4,13z"/>
				<path id="Path_78" class="st8" d="M24.2,8.7l6.4,4.4c0.7,0.5,1.6,0.4,2.2-0.1l0,0c0.8-0.6,0.9-1.8,0.2-2.6
					c-0.1-0.1-0.2-0.2-0.3-0.3l-6-4.7c-0.6-0.5-1.5-0.5-2.2-0.1l-0.5,0.3c-0.8,0.6-1,1.7-0.4,2.5C23.9,8.4,24.1,8.5,24.2,8.7z"/>
				<path id="Path_79" class="st8" d="M72.9,29H2.4C1.1,29,0,27.9,0,26.6c0-0.2,0-0.5,0.1-0.7c0.1-0.4,0.3-0.9,0.5-1.3h70.7
					C72.2,27.2,72.9,29,72.9,29z"/>
			</g>
			<g id="Group_83" transform="translate(29.194 63.358)">
				<g id="Group_82">
					<g id="Group_81">
						<path id="Path_80" class="st8" d="M0.8,232.2l6.3,4.3c0.7,0.5,1.5,0.4,2.2-0.1l0,0c0.8-0.6,0.9-1.8,0.2-2.5
							c-0.1-0.1-0.2-0.2-0.3-0.3L3.4,229c-0.6-0.5-1.5-0.5-2.1-0.1l-0.5,0.3c-0.8,0.6-1,1.7-0.4,2.5C0.5,231.9,0.6,232.1,0.8,232.2z
							"/>
						<path id="Path_81" class="st11" d="M157.3,68c-0.2,17.2-1.2,51.9-3.3,54.2s-87.9,2.9-90.4-0.2S75.6,93,75.6,93
							c-1-0.4-2-0.9-2.9-1.5c-0.9-0.8,1.1-4,1.1-4s-2.9-0.8-3.4-1.4s3.3-5.4,3.3-5.4S62.1,41.2,60.4,36.4s-5.6-17.2-3.6-19.5
							c1.4-1.6,9.3-5.4,13.9-7.5c2-0.9,3.3-1.5,3.3-1.5s39.4-7.8,40.9-7.9c1.8,0.4,3.6,0.9,5.4,1.5c9.4,2.9,28.1,9.2,29.1,10.2
							C150.8,12.9,157.5,50.8,157.3,68z"/>
						<path id="Path_82" class="st5" d="M120.3,1.5c-3.1,6.6-9.7,16-22.9,17.6c-14.1,1.6-22.6-5.1-26.6-9.7c2-0.9,3.3-1.5,3.3-1.5
							s39.4-7.8,40.9-7.9C116.7,0.4,118.5,0.9,120.3,1.5z"/>
						<g id="Group_80" transform="translate(75.678 42.397)">
							<path id="Path_83" class="st0" d="M2.7,31.7L2.7,31.7C2.7,31.6,2.6,31.7,2.7,31.7z"/>
							<path id="Path_84" class="st0" d="M57.5,24c2-2.2-0.3-21.5-4.5-23.9C50.9-1,37.8,4,27.3,4.6S1.7,3.7,0.7,5.6
								c-2.2,3.9,1.7,18.5,2.9,20S55.4,26.2,57.5,24z"/>
						</g>
					</g>
				</g>
			</g>
			<g id="Group_84" transform="translate(17.25 169.414)">
				<path id="Path_85" class="st5" d="M164,40.1c-4.9,10-21.5,10.4-38.7,10.2c-1.5,0-2.9,0-4.4,0c-5.4,0-10.8-0.1-15.9,0.2
					c-22.2,1.4-66.2-8.6-64.8-7.3s8.6,69.8,15.4,107c-2-2.9-6.7-6.1-12.4-9.1c-0.6-0.3-1.3-0.7-1.9-1c-14-7.1-32.4-13.3-32.4-13.3
					l2.8-10.6c0,0-11.5-87.3-11.5-90s-2.8-24.2,13.7-26c21.4-2.4,83.9,10.8,83.9,10.8s11.4-0.4,24.7-0.7c1.4,0,2.9-0.1,4.4-0.1
					c16.5-0.3,34.5-0.2,37.1,1.2C169,14.3,170.8,26.1,164,40.1z"/>
				<path id="Path_86" class="st11" d="M40.2,43.3c-0.3-0.8-5.4-10.2-4.7-12s4.4,5.3,4.4,5.3s2.3-8.1,4.6-6.1S40.2,43.3,40.2,43.3z"
					/>
				<path id="Path_87" class="st11" d="M123.7,33.3c-7.9,0.1-15.8-0.5-23.6-1s-15.7-0.6-23.6-1.1c-7-0.4-14.1-0.8-21.1-1.1
					c-3.5-0.2-6.9-0.4-10.4-0.6c-3.5-0.4-7-0.6-10.6-0.6c-3,0.1-5.6,1-6.2,4.2c-0.6,2.8,0.2,5.8,0.6,8.6C30,48.5,31,55.4,32,62.3
					c2.1,14,4.2,28.1,6.3,42.1c1.8,12.2,3.2,24.5,4.9,36.8c-0.6-0.3-1.3-0.7-1.9-1c-1.1-6.1-2.2-12.1-3.2-18.2
					c-1.4-8.2-2.7-16.3-4-24.5c-2.3-14.6-4.5-29.2-6.8-43.8c-0.5-3.6-1.1-7.1-1.6-10.7c-0.6-3-0.9-6-0.8-9c0.1-2.5,1.4-4.9,3.5-6.3
					c2.3-1.5,5.1-1.3,7.7-1.2c14.6,0.6,29.2,1.1,43.7,1.8c7.4,0.3,14.7,0.9,22.1,1.2c7.3,0.3,14.6,0.5,21.9,1.3
					c0.7,0.1,1.1,0.8,1,1.5C124.7,32.8,124.2,33.2,123.7,33.3z"/>
				<path id="Path_88" class="st11" d="M126.9,10.4c-0.1,1-0.1,2.1-0.2,3.1c-0.4,6.1-0.8,12.2-1,18.4c-0.2,6.1-0.3,12.2-0.4,18.3
					c0,0.1,0,0.2,0,0.2c-1.5,0-2.9,0-4.4,0c-0.1-6.1,0.1-12.3,0.3-18.4c0.2-6.2,0.6-12.4,1.1-18.5c0.1-1,0.2-2,0.3-2.9
					C124,10.4,125.4,10.4,126.9,10.4z"/>
				<path id="Path_89" class="st11" d="M16.4,15.2C18.1,17.2,12.3,30.7,9,30S3,18.6,3.9,15.9S14.8,13.1,16.4,15.2z"/>
			</g>
			<g id="Group_85" transform="translate(96.535 179.944)">
				<path id="Path_90" class="st12" d="M105.5,30.4c-6,8.6-32,19.3-51.8,26.9S18.2,79.4,18.2,79.4s-7-1.2-13.5-9.8
					c-3.3-4.4-4.4-10.8-4.7-16.1C0,52.6,0,51.7,0,50.9c0-2.2,0.1-4.4,0.3-6.5c18.8-10.5,78-41.8,84.4-43.3c2.2-0.5,4.4-0.9,6.6-1
					c1.3-0.1,2.5,0,3.8,0.1c4.3,0.4,8.3,2.4,11.1,5.7C112.5,13,111.6,21.8,105.5,30.4z"/>
				<path id="Path_91" class="st11" d="M95.1,0.1c-22.8,11.7-67,38.4-72.2,41.4c-4.3,2.5-16.1,8.6-22.8,12C0,52.6,0,51.7,0,50.9
					c7.9-3.4,15.6-7.2,23.1-11.4c11-6.2,51-30.7,68.2-39.4C92.6,0,93.8,0,95.1,0.1z"/>
			</g>
			<g id="Group_88" transform="translate(113.689 74.812)">
				<g id="Group_86" transform="translate(30.293 0)">
					<path id="Path_92" class="st4" d="M65.3,73.3c-0.5,4.6-2.6,8.6-14.6,16.5S5.8,100.9,5.8,100.9L0,90.2l38.1-18.3L37,66.4
						L34.8,55l23-8.1C57.8,46.8,65.7,68.7,65.3,73.3z"/>
					<path id="Path_93" class="st6" d="M56.2,70.5c-9.1-2.8-18.1,1.4-18.1,1.4L37,66.4C42.1,65.7,50.7,65.9,56.2,70.5z"/>
					<path id="Path_94" class="st5" d="M34.6,0.2c-6.8-2.5-12.3,16-10.5,28.9s9.7,32.2,9.5,31.6s30.9-12,30.9-12S46.5,4.5,34.6,0.2z
						"/>
				</g>
				<g id="Group_87" transform="translate(0 82.397)">
					<path id="Path_95" class="st4" d="M34,5.6c2.7,2.5,4.2,6.1,4.2,9.8c0.1,6.4-12,4.5-15.9-1.9C24.1,5.7,34,5.6,34,5.6z"/>
					<path id="Path_96" class="st6" d="M8,14.5c-0.6,0.2-7.4,0.2-7.9,1c-0.5,0.8,0.9,4.2,7,3.9s6.7-3.9,6.7-3.9
						c1.7,0.9,3.5,1.5,5.4,1.9c1.8,0.3,3.6-0.1,5.2-0.9c0,0,7,2.8,8.3,1.4s1.2-6.4-2.5-10.1s-9.1-4.9-11.7-3.9S8.6,14.3,8,14.5z"/>
					<path id="Path_97" class="st7" d="M34,5.6c-0.8-1.9-3,0.1-3,0.1c0.2-1.5-0.7-2.9-2-3.4c-0.9-0.3-2.6,1.5-2.6,1.5s0.3-3.1-1-3.6
						s-3.5,0.8-3.5,0.8s-0.8-0.3-2-0.5c-1.1-0.3-3.7,0.9-4.7,1.7c-3.6,2.9-5.4,8-6,10.6v0c-0.2,0.8,0.3,1.6,1.1,1.8
						c0.1,0,0.2,0,0.3,0l0.2,0c0.6,0,1.1-0.3,1.4-0.8c1.8-3.1,5.5-7.8,6.2-7.7l1.9,0.2c0,0,0,0,0,0c-0.1,0.3-3.5,11.9-2.3,13
						c1.2,1.1,1.9,0.9,2.9-0.9c1.4-2.4,4.2-10.9,4.2-10.9S23.9,19,24.8,19.8s1.5,1.1,2.6,0s2.6-10.5,2.6-10.5s0.5,11.1,2.5,11.1
						S34.8,7.4,34,5.6z"/>
					<path id="Path_98" class="st4" d="M21.9,0.9c0,0-0.7,0.5-1.6,5.4l-1.9-0.2l1.5-5.7C21.1,0.6,21.9,0.9,21.9,0.9z"/>
				</g>
			</g>
			<g id="Group_89" transform="translate(8.951 120.939)">
				<path id="Path_99" class="st13" d="M0,2.8L2.9,0l88.9,0.7l19.3,58.1l-2.1,2.9L0,2.8z"/>
				<path id="Path_100" class="st13" d="M0,2.8l89.9,0.3L109,61.7L19.6,59L0,2.8z"/>
				<path id="Path_101" class="st14" d="M109,61.7h55.7v-4.9h-55.1L109,61.7z"/>
			</g>
			<g id="Group_100" transform="translate(82.454)">
				<g id="Group_90" transform="translate(20.784 39.424)">
					<path id="Path_103" class="st4" d="M40.9,23.9c0,0-5.6,15.4-21.9,15.2C6.7,38.9,0,31.8,0,31.8s6.9-3.1,7.9-5.9
						c0.4-1.1,0.2-3.9-0.2-6.9c-0.6-4.4-1.5-9.2-1.5-9.2L24.6,0c0,0,0.5,3.2,1.4,7l0,0c1.1,4.6,2.9,10,5.3,11.7
						C34.3,20.9,37.5,22.6,40.9,23.9z"/>
					<path id="Path_104" class="st6" d="M26,7L26,7c-1.8,3.1-4.2,5.8-7.2,7.8c-4.8,3.3-8.7,4.1-11.1,4.2c-0.6-4.4-1.5-9.2-1.5-9.2
						L24.6,0C24.6,0,25.1,3.2,26,7z"/>
				</g>
				<g id="Group_99">
					<g id="Group_91" transform="translate(7.432 31.562)">
						<path id="Path_105" class="st4" d="M0,4.1c0,1.9,2.6,6.4,5.2,7.4c1.2,0.5,2.5,0.8,3.9,0.7c0,0,0-0.4-0.2-1
							c0-0.2-0.1-0.5-0.1-0.8C8.1,6.9,6.2-0.7,2.4,0C0.3,0.4,0,2.2,0,4.1z"/>
					</g>
					<g id="Group_92" transform="translate(0 17.447)">
						<path id="Path_106" class="st10" d="M0,6.3c0,0,18.7,15.2,58.8,10.7C45.1,4.1,22.5-7.7,0,6.3z"/>
					</g>
					<path id="Path_107" class="st15" d="M14.7,36.9c-1.5-1.1-2.9-2.4-3.9-3.9c-1.2-1.9,0.2-9.5,0.2-9.5s-3.6,4.2-3.8,2.8
						s4.5-8.1,4.5-8.1s-1.7-5.1-0.9-5.8s2.3,2.3,2.3,2.3s2.8-6.6,9-7.2s25.4,3.9,28.9,12.1s0.2,17.4,0.2,17.6S28.6,42.8,14.7,36.9z"
						/>
					<g id="Group_93" transform="translate(12.85 22.236)">
						<path id="Path_108" class="st7" d="M33,11.6c0,0-0.1,1.1-0.3,3.1c-0.1,0.7-0.1,1.5-0.2,2.5c-0.2,4.4-2.7,8.4-6.5,10.5
							c-5,3.1-10.1,5.6-16.6,5.4C4.3,33,1.4,16.1,0.4,9.2C0.1,7.5,0,6.3,0,6.3C2.2,4.6,4,2.4,5.4,0c4.8,5.1,20,2.9,20,2.9
							C25.3,4,25.6,5.1,26,6c0.8,1.9,3.9,1.7,3.9,1.7l0.5,2.9L33,11.6z"/>
						<path id="Path_109" class="st4" d="M33,11.6c0,0-0.1,1.1-0.3,3.1c-0.5-0.1-1-0.3-1.4-0.5c-2.2-1-2.5-2-2.6-5
							c-1.6,0.4-3.9,0.3-4.9-3.8C14.9,8.1,10.4,5.6,6.1,2.5c-1.3,2.7-3.3,5-5.7,6.7C0.1,7.5,0,6.3,0,6.3C2.2,4.6,4,2.4,5.4,0
							c4.8,5.1,20,2.9,20,2.9C25.3,4,25.6,5.1,26,6c0.8,1.9,3.9,1.7,3.9,1.7l0.5,2.9L33,11.6z"/>
					</g>
					<g id="Group_96" transform="translate(11.188 28.339)">
						<g id="Group_95">
							<g id="Group_94">
								<path id="Path_110" class="st10" d="M20.8,7.2c-0.1-0.5-0.3-1-0.7-1.4l-0.5-0.3c-0.3-0.2-0.7-0.2-1.1-0.2
									c-0.5,0.1-1,0.3-1.4,0.7c-0.4,0.4-0.5,1-0.5,1.5c0.1,0.5,0.3,1,0.7,1.4l0.5,0.3c0.3,0.2,0.7,0.2,1.1,0.2
									c0.5-0.1,1-0.3,1.4-0.7C20.6,8.3,20.8,7.7,20.8,7.2z"/>
								<path id="Path_111" class="st10" d="M8.8,7.2c-0.1-0.5-0.3-1-0.7-1.4L7.6,5.5C7.3,5.3,6.9,5.3,6.5,5.3C6,5.4,5.5,5.6,5.1,6
									C4.8,6.5,4.6,7,4.7,7.6C4.7,8.1,5,8.6,5.4,9l0.5,0.3c0.3,0.2,0.7,0.2,1.1,0.2c0.5-0.1,1-0.3,1.4-0.7
									C8.7,8.3,8.9,7.7,8.8,7.2z"/>
								<path id="Path_112" class="st6" d="M11.9,5.1c0,0,2,3.3,1.5,5.7s-3.2,4.1-3.2,4.1S12.5,11.6,11.9,5.1z"/>
								<path id="Path_113" class="st6" d="M10.2,18.3c0,0,2.3,2.2,6.7,1.1c3.3-0.8,5.9-3.4,6.6-6.7C23.5,12.7,18.3,19.1,10.2,18.3z
									"/>
								<path id="Path_114" class="st4" d="M15,14.2c-0.3-0.9-3.5,0.2-3,0.6S15.3,15.2,15,14.2z"/>
								<path id="Path_115" class="st10" d="M15.7,2.4c1.2-0.5,2.5-0.7,3.8-0.7c1.3,0.1,2.6,0.3,3.9,0.6c-0.9-1.5-2.5-2.4-4.2-2.3
									C17.2,0,15.7,2.4,15.7,2.4z"/>
								<path id="Path_116" class="st10" d="M2.8,2.8C4,2.3,5.3,2.1,6.6,2.1c1.3,0.1,2.6,0.3,3.9,0.6C9.6,1.2,8,0.3,6.3,0.4
									C4.3,0.4,2.8,2.8,2.8,2.8z"/>
								<path id="Path_117" class="st10" d="M18.3,13.2c-0.3,0-0.5,0-0.8,0c-1.7-0.2-3.2-1.3-3.9-2.8c-0.9-1.6-1-3.5-0.2-5.1
									c0.6-1,1.6-1.6,2.8-1.8c2.6-0.7,6.3-0.2,7.8,0.6c0.8,0.5,1.4,1.3,1.6,2.2c0.2,1.5-0.2,3.1-1.1,4.3
									C23.3,12.3,21.2,13.2,18.3,13.2z M19.1,4.3c-0.9,0-1.7,0.1-2.6,0.3c-0.8,0.2-1.5,0.6-2,1.3l0,0c-0.6,1.2-0.5,2.7,0.2,3.9
									c0.6,1.2,1.6,2,2.9,2.2c1.9,0.1,4.6-0.2,5.9-2.1c0.7-1,1-2.2,0.9-3.3c-0.1-0.6-0.5-1.1-1-1.4C22,4.6,20.5,4.3,19.1,4.3
									L19.1,4.3z"/>
								<path id="Path_118" class="st10" d="M7.4,13.2c-2.9,0-5-0.9-6.2-2.6C0.2,9.4-0.1,7.8,0.1,6.3c0.2-0.9,0.8-1.7,1.6-2.2
									c1.5-0.9,5.1-1.3,7.8-0.6c1.1,0.2,2.1,0.9,2.8,1.8l0,0c0.8,1.6,0.8,3.6-0.2,5.1C11.3,12,9.8,13,8.1,13.2
									C7.9,13.2,7.6,13.2,7.4,13.2z M6.6,4.3C5.1,4.3,3.7,4.6,2.3,5.2C1.8,5.5,1.4,6,1.3,6.6C1.1,7.7,1.5,9,2.2,9.9
									c1.3,1.9,3.9,2.2,5.9,2.1c1.3-0.2,2.4-1,2.9-2.2c0.7-1.2,0.8-2.7,0.2-3.9l0,0c-0.5-0.7-1.2-1.1-2-1.3
									C8.3,4.4,7.4,4.3,6.6,4.3L6.6,4.3z"/>
								<path id="Path_119" class="st10" d="M24.8,6.7c-0.3,0-0.5-0.2-0.6-0.4c-0.1-0.3,0.1-0.7,0.4-0.8c0.1,0,0.3-0.1,11.2-1.4
									c0.3,0,0.6,0.2,0.7,0.5c0,0.3-0.2,0.6-0.5,0.7c0,0,0,0,0,0c-4.2,0.5-10.6,1.3-11,1.4C24.9,6.7,24.8,6.7,24.8,6.7z"/>
							</g>
						</g>
					</g>
					<g id="Group_97" transform="translate(0.003)">
						<path id="Path_120" class="st9" d="M58.8,34.5c0,0-9.1-9.4-28.9-12.7c-19.6-3.2-29.6,1.9-29.9,2C2,19.3,9.1,16,9.1,16
							s0.7-2.8,1.7-5.8c0.6-1.9,1.4-3.8,2.4-5.6c2-2.9,18-6,24.9-4.2S54,12.2,55.1,14.2c0.6,1.1,0.2,3.7-0.3,5.9
							c-0.4,2.1-1,3.8-1,3.8L58.8,34.5z"/>
						<path id="Path_121" class="st10" d="M54.8,20.1c-0.4,2.1-1,3.8-1,3.8c-6.9-2.9-14-5.3-21.2-7.3c-7.7-2-15.7-2.2-23.5-0.6
							c0,0,0.7-2.8,1.7-5.8C16,9,21.3,8.7,26.5,9.4C37.4,10.9,51.5,18.3,54.8,20.1z"/>
						<path id="Path_122" class="st10" d="M36.7,1.4c0.9,0.7-2.6,3.3-3.8,3.4s-8.3-0.7-8.5-1.5S35.8,0.7,36.7,1.4z"/>
					</g>
					<g id="Group_98" transform="translate(43.716 28.408)">
						<path id="Path_123" class="st7" d="M10.9,5c0,2.3-3.1,7.8-6.3,9c-1.5,0.7-3.1,1-4.7,0.9c0,0,0.1-0.5,0.2-1.2
							c0-0.3,0.1-0.6,0.2-0.9C1.1,8.4,3.4-0.8,8,0.1C10.5,0.5,10.9,2.7,10.9,5z"/>
						<path id="Path_124" class="st6" d="M9,6.5c0,0-0.4-2.1-2.2-2.3C5,4,3.4,7.2,3.4,7.2S6.5,6.6,6.7,9c0.2,2.8-5.1,4.3-6.5,4.6
							c0-0.3,0.1-0.6,0.2-0.9c0.9-0.1,3.6-1.7,4-2.9C4.7,8.5,3.7,7.9,2,8.3C3,4.8,5.4,2.1,7.2,2.1C10.2,2.1,9,6.5,9,6.5z"/>
					</g>
				</g>
			</g>
		</g>
	</g>
</g>
<g>
	<path class="st11" d="M152,122.1c0.1,0.1,0.2,0.2,0.4,0.3c0.2,0.2,0.3,0.4,0.3,0.7c0.1,0.3,0,0.7-0.1,1.1c-0.1,0.4-0.4,1-0.8,1.6
		c-0.4,0.6-0.9,1.1-1.5,1.5c-0.6,0.5-1.2,0.9-1.9,1.2c-0.7,0.3-1.4,0.6-2.1,0.8s-1.4,0.3-2.1,0.3c-0.6,0-1.2,0-1.8-0.1
		c-0.6-0.1-1.2-0.3-1.7-0.7c-0.7-0.5-1.2-1.2-1.4-1.9c-0.2-0.7-0.3-1.5-0.2-2.3c0.1-0.8,0.3-1.6,0.6-2.3c0.3-0.7,0.5-1.4,0.8-1.9
		c0.1-0.2,0.3-0.4,0.3-0.6c0.1-0.2,0.2-0.3,0.2-0.4c0.3-0.6,0.8-1.1,1.3-1.8c0.5-0.6,1.1-1.2,1.7-1.8c0.7-0.6,1.4-1.1,2.2-1.5
		c0.8-0.4,1.7-0.7,2.7-0.7c0.4,0,0.8,0,1.2,0.1c0.4,0.1,0.7,0.2,1,0.5c0.3,0.2,0.4,0.6,0.5,1c0.1,0.4,0,1-0.2,1.6
		c-0.1,0.5-0.4,1-0.7,1.4c-0.3,0.4-0.6,0.8-1,1.1c-0.4,0.3-0.8,0.5-1.3,0.7c-0.5,0.2-0.9,0.3-1.4,0.3c-0.2,0-0.4,0-0.6,0
		c-0.2,0-0.4-0.1-0.6-0.2c-0.2-0.1-0.3-0.3-0.4-0.4c-0.1-0.2-0.1-0.4-0.1-0.7c0-0.4,0.1-0.7,0.3-0.9c0.2-0.2,0.3-0.4,0.4-0.4
		c0.1,0,0.1,0,0.2-0.1c0.1,0,0.2-0.1,0.3-0.1c0,0,0,0,0.1,0c0,0,0.1,0,0.1,0c0.1,0,0.1,0,0.2,0.1c0.1,0,0.1,0.1,0,0.2
		c-0.1,0.1-0.2,0.2-0.3,0.4c-0.1,0.2,0,0.3,0.1,0.4c0.1,0.1,0.2,0.1,0.4,0.1c0.2,0,0.4-0.1,0.6-0.1c0.2-0.1,0.5-0.2,0.7-0.4
		c0.2-0.2,0.4-0.4,0.6-0.6c0.3-0.4,0.5-0.8,0.6-1.2c0.1-0.3,0.1-0.6,0.1-0.8c0-0.3-0.1-0.6-0.2-0.7c-0.1-0.1-0.3-0.2-0.5-0.3
		c-0.2-0.1-0.4-0.1-0.5-0.1c-0.2,0-0.4,0.1-0.6,0.2c-0.1,0-0.2,0.1-0.4,0.2c-0.2,0.1-0.4,0.2-0.7,0.3c-0.2,0.1-0.4,0.3-0.7,0.5
		c-0.2,0.2-0.5,0.4-0.8,0.6c-0.1,0.1-0.4,0.4-0.8,0.8c-0.4,0.5-0.9,1-1.3,1.8c-0.3,0.3-0.5,0.9-0.8,1.5c-0.1,0.3-0.3,0.5-0.4,0.7
		c-0.1,0.2-0.2,0.4-0.2,0.5c-0.1,0.2-0.2,0.5-0.4,0.9c-0.2,0.4-0.3,0.9-0.4,1.5s-0.2,1.1-0.2,1.7c0,0.6,0.1,1.1,0.3,1.6
		c0.2,0.5,0.6,0.8,1,1.1c0.5,0.3,1.2,0.4,2.1,0.3c0.8-0.1,1.4-0.2,2.1-0.5c0.6-0.3,1.2-0.6,1.7-1.1s1-0.9,1.4-1.4
		c0.4-0.5,0.7-1,1-1.4c0.3-0.5,0.5-0.9,0.6-1.2s0.3-0.6,0.3-0.8c0,0,0,0,0-0.1C151.9,122.1,151.9,122.1,152,122.1L152,122.1
		C152,122.1,152,122.1,152,122.1z"/>
	<path class="st11" d="M157.6,125.5c0.3-0.3,0.5-0.6,0.8-1.1c0.3-0.4,0.5-0.9,0.8-1.4c0.2-0.5,0.4-0.8,0.5-1.1l0.5,0
		c-0.3,0.9-0.6,1.7-1,2.4c-0.2,0.3-0.3,0.6-0.6,0.9c-0.2,0.3-0.4,0.5-0.7,0.8s-0.5,0.4-0.8,0.5c-0.3,0.1-0.6,0.2-0.9,0.2
		c-0.1,0-0.2,0-0.3,0c-0.1,0-0.2-0.1-0.3-0.1c-0.1-0.1-0.2-0.2-0.3-0.3c-0.1-0.2-0.2-0.4-0.2-0.7c0-0.3,0-0.5,0-0.8
		c0-0.3,0.1-0.7,0.2-1c0.1-0.4,0.2-0.7,0.2-0.9c0.1-0.5,0.2-0.9,0.3-1.1c0-0.3,0-0.5,0-0.6c0-0.1-0.1-0.2-0.1-0.2c0,0-0.1,0-0.1-0.1
		c-0.1-0.1-0.3,0-0.5,0.2c-0.2,0.2-0.4,0.5-0.6,0.9c-0.2,0.4-0.5,0.9-0.7,1.5c-0.3,0.6-0.5,1.2-0.8,1.9c-0.1,0.3-0.1,0.6-0.1,0.9
		s0,0.5,0,0.5c0,0.1,0,0.1-0.1,0.1l-0.1,0l0,0c-0.5,0-0.9-0.2-1.1-0.5c-0.2-0.3-0.4-0.5-0.4-0.9c-0.1-0.3-0.1-0.7,0-1.2l1.3-4.7
		c0,0,0,0,0-0.1c0,0,0.1-0.1,0.1-0.1l1.8-0.1c0,0,0.1,0,0.1,0c0,0,0,0.1,0,0.1c-0.1,0.2-0.1,0.5-0.3,0.9c-0.1,0.4-0.2,0.9-0.4,1.4
		c0.3-0.5,0.5-0.9,0.9-1.4c0.3-0.4,0.6-0.8,1-1c0,0,0.1,0,0.1-0.1c0.1,0,0.1-0.1,0.2-0.1c0.1,0,0.1,0,0.2-0.1c0.2-0.1,0.4-0.1,0.7,0
		c0.3,0.1,0.5,0.2,0.7,0.4c0.1,0.2,0.2,0.4,0.3,0.6c0.1,0.3,0.1,0.5,0.1,0.8c0,0.3-0.1,0.6-0.1,0.8c-0.1,0.5-0.3,0.9-0.4,1.5
		c-0.2,0.5-0.3,1-0.3,1.3c0,0.1,0,0.2-0.1,0.3c0,0.1,0,0.3,0,0.4l0,0.1l0.1,0.1C157.1,125.8,157.3,125.8,157.6,125.5z"/>
	<path class="st11" d="M164.9,125.1c0.1,0.1,0.4,0.1,0.6-0.2c0.3-0.3,0.5-0.6,0.8-1.1c0.3-0.4,0.5-0.9,0.7-1.4
		c0.2-0.5,0.4-0.8,0.4-1.1l0.5,0c-0.3,0.9-0.6,1.7-1,2.4c-0.2,0.3-0.3,0.6-0.6,0.9s-0.4,0.5-0.7,0.8c-0.2,0.2-0.5,0.4-0.8,0.5
		c-0.3,0.1-0.6,0.2-0.9,0.2c-0.2,0-0.4,0-0.5-0.1c-0.1-0.1-0.3-0.2-0.4-0.4c-0.1-0.2-0.2-0.4-0.3-0.7c-0.2,0.3-0.4,0.6-0.7,0.8
		c-0.2,0.2-0.5,0.4-0.8,0.5c-0.3,0.2-0.7,0.2-1.1,0.2c-0.4,0-0.7-0.2-1-0.4c-0.2-0.3-0.4-0.6-0.5-1s-0.1-0.8,0-1.3
		c0.1-0.5,0.2-1,0.4-1.5c0.4-1.1,1-1.8,1.7-2.4c0.7-0.5,1.4-0.8,2.2-0.9c0.3,0,0.6,0,0.9,0.1c0.2,0.1,0.4,0.3,0.6,0.5
		s0.3,0.7,0.3,1.2l0.7,0c0,0,0.1,0,0.1,0.1c0,0,0,0.1,0,0.2c-0.1,0.2-0.2,0.5-0.3,1c-0.1,0.4-0.3,0.9-0.4,1.3
		c-0.1,0.4-0.2,0.9-0.2,1.2C164.8,124.8,164.8,125,164.9,125.1z M164.4,120.7c0-0.1-0.1-0.2-0.1-0.4c0-0.1-0.1-0.3-0.2-0.4
		c-0.1-0.1-0.2-0.2-0.3-0.3c-0.1-0.1-0.3-0.1-0.5-0.1c-0.3,0-0.5,0.2-0.8,0.4c-0.2,0.3-0.4,0.6-0.6,0.9c-0.2,0.3-0.3,0.7-0.4,1
		c-0.1,0.3-0.2,0.6-0.3,0.8c-0.1,0.2-0.1,0.4-0.2,0.7c-0.1,0.3-0.1,0.6-0.1,0.9c0,0.3,0,0.5,0,0.8c0,0.2,0.2,0.4,0.4,0.4
		c0.2,0,0.3,0,0.5-0.2c0.2-0.1,0.3-0.3,0.5-0.5c0.1-0.2,0.3-0.4,0.3-0.6c0.1-0.2,0.2-0.4,0.2-0.5c0-0.1,0.1-0.3,0.2-0.5
		c0.1-0.3,0.2-0.5,0.3-0.8c0.1-0.3,0.2-0.6,0.3-0.8c0.1-0.3,0.2-0.5,0.2-0.5l0,0c0,0,0-0.1,0.1-0.1L164.4,120.7z"/>
	<path class="st11" d="M171.8,118.2c0.4,0,0.7,0,0.9,0.2c0.2,0.2,0.4,0.4,0.6,0.7c0.1,0.3,0.2,0.6,0.3,1c0,0.4,0,0.8,0,1.1
		c0.3-0.1,0.6-0.2,1-0.3c0.4-0.1,0.7-0.1,1.1-0.2l0,0.6c-0.2,0-0.4,0.1-0.7,0.1c-0.2,0-0.5,0.1-0.7,0.2c-0.3,0.1-0.6,0.2-0.9,0.3
		c-0.4,0.1-0.8,0.3-1.1,0.4c-0.3,0.2-0.6,0.3-0.8,0.5c-0.2,0.1-0.4,0.3-0.5,0.4c-0.1,0.1-0.2,0.2-0.2,0.2c-0.2,0.2-0.4,0.4-0.6,0.6
		c-0.2,0.2-0.3,0.5-0.4,0.7l0,0c0.2-0.1,0.3-0.2,0.4-0.4c0.1-0.2,0.3-0.4,0.4-0.6c0.2-0.2,0.5-0.5,0.7-0.7c0.3-0.2,0.6-0.4,0.8-0.5
		c0.3-0.2,0.5-0.3,0.7-0.4c0.2-0.1,0.4-0.2,0.5-0.2c-0.1,0.3-0.2,0.6-0.4,1c-0.2,0.3-0.4,0.7-0.6,1c-0.2,0.3-0.5,0.6-0.8,0.8
		c-0.3,0.2-0.6,0.4-1,0.5c-0.1,0-0.2,0-0.3,0.1c-0.1,0-0.2,0-0.4,0c-0.1,0-0.3,0-0.4-0.1c-0.1,0-0.2-0.1-0.3-0.2
		c-0.2-0.3-0.2-0.5-0.1-0.7c0.1-0.2,0.1-0.3,0.2-0.4c0.2-0.2,0.4-0.5,0.7-0.8c0.3-0.3,0.7-0.6,1.2-1c0.1-0.2,0.1-0.4,0.2-0.5
		c0-0.1,0-0.1,0.1-0.2c0.2-0.7,0.3-1.2,0.3-1.5c0-0.4,0-0.6,0-0.8c0-0.2-0.1-0.3-0.2-0.3c-0.2,0-0.3,0.1-0.5,0.2
		c-0.2,0.1-0.4,0.3-0.5,0.5c-0.2,0.2-0.3,0.4-0.5,0.6c-0.1,0.2-0.2,0.3-0.3,0.5c-0.3,1-0.5,1.8-0.7,2.3c-0.2,0.6-0.3,0.9-0.3,1
		c-0.1,0.3-0.1,0.6-0.1,0.9c0,0.3,0,0.5,0,0.6c0,0.1,0,0.1,0,0.1c0,0,0,0-0.1,0c0,0,0,0,0,0l0,0c-0.5,0-0.9-0.2-1.1-0.5
		c-0.2-0.3-0.4-0.5-0.4-0.9c-0.1-0.3-0.1-0.7,0-1.2l2.5-8.8c0,0,0,0,0.1-0.1c0,0,0.1,0,0.1-0.1l1.8-0.1c0,0,0.1,0,0.1,0
		c0,0,0,0.1,0,0.1l-1.3,4.7c0.2-0.2,0.4-0.4,0.7-0.6C171.1,118.4,171.4,118.3,171.8,118.2z"/>
	<path class="st11" d="M175.1,124.5c-0.1-0.2-0.1-0.5-0.1-0.7c0-0.3,0-0.5,0-0.8c0-0.3,0.1-0.6,0.1-0.8l0.1-0.4l0.1-0.4l0.9-3.4
		c0,0,0,0,0.1-0.1c0,0,0.1-0.1,0.1-0.1l1.8-0.1c0,0,0.1,0,0.1,0c0,0,0,0,0,0.1l-0.6,2.2c-0.1,0.2-0.1,0.5-0.2,0.7
		c-0.1,0.2-0.1,0.5-0.2,0.8c-0.1,0.3-0.2,0.6-0.2,0.9c-0.1,0.3-0.2,0.6-0.2,0.9c0,0.1,0,0.1,0,0.2c0,0.1,0,0.1,0,0.2
		c0,0.1,0,0.1,0,0.2l0,0.1c0,0,0,0.1,0,0.1l0.1,0.1c0.1,0.1,0.2,0.1,0.4,0c0.2-0.1,0.3-0.3,0.5-0.5c0.2-0.2,0.4-0.5,0.5-0.8
		c0.2-0.3,0.4-0.6,0.5-0.9c0.2-0.3,0.3-0.6,0.4-0.9c0.1-0.3,0.2-0.5,0.3-0.6l0.5,0c-0.3,0.9-0.6,1.7-1,2.4c-0.2,0.3-0.3,0.6-0.5,0.9
		c-0.2,0.3-0.4,0.5-0.7,0.8c-0.2,0.2-0.5,0.4-0.8,0.5c-0.3,0.1-0.6,0.2-0.9,0.2c-0.1,0-0.1,0-0.2,0c-0.1,0-0.1,0-0.2,0
		c-0.1,0-0.1-0.1-0.2-0.1c-0.1-0.1-0.2-0.2-0.3-0.3c0,0-0.1-0.1-0.1-0.1C175.1,124.7,175.1,124.6,175.1,124.5
		C175.1,124.6,175.1,124.6,175.1,124.5z M176.6,115.4c0-0.2,0-0.4,0-0.5c0.1-0.1,0.2-0.1,0.6-0.2l1.3-0.1c0.3,0,0.5,0.1,0.6,0.3
		c0.1,0.2,0,0.4-0.2,0.7l-0.9,1.2c-0.2,0.3-0.4,0.4-0.7,0.5c-0.2,0-0.4-0.1-0.5-0.4L176.6,115.4z"/>
	<path class="st11" d="M184,120.2c-0.3,0.9-0.6,1.7-1,2.4c-0.2,0.3-0.3,0.6-0.6,0.9c-0.2,0.3-0.4,0.5-0.7,0.8
		c-0.2,0.2-0.5,0.4-0.8,0.5c-0.3,0.1-0.6,0.2-0.9,0.2c-0.1,0-0.1,0-0.2,0c-0.1,0-0.1,0-0.2,0c-0.1,0-0.1-0.1-0.2-0.1
		c-0.1-0.1-0.2-0.2-0.3-0.3c0,0-0.1-0.1-0.1-0.1c0,0,0-0.1-0.1-0.1c0,0,0-0.1,0-0.1c-0.1-0.2-0.1-0.5-0.1-0.7c0-0.3,0-0.5,0-0.8
		c0-0.3,0.1-0.6,0.1-0.8l0.1-0.2l1.9-6.9c0-0.1,0-0.1,0.2-0.1l1.8-0.1c0,0,0.1,0,0.1,0c0,0,0,0.1,0,0.1c-0.1,0.2-0.2,0.6-0.3,1.1
		c-0.1,0.5-0.3,1.1-0.5,1.8c-0.2,0.7-0.4,1.4-0.6,2.2c-0.2,0.8-0.4,1.5-0.6,2.2l-0.3,1.1c0,0.1,0,0.1,0,0.2c0,0.1,0,0.1,0,0.2
		c0,0.1,0,0.1,0,0.2l0,0.1c0,0,0,0.1,0,0.1c0,0.1,0,0.1,0.1,0.1c0.1,0.1,0.2,0.1,0.4,0c0.2-0.1,0.3-0.3,0.5-0.5
		c0.2-0.2,0.4-0.5,0.5-0.8c0.2-0.3,0.4-0.6,0.5-0.9c0.2-0.3,0.3-0.6,0.4-0.9c0.1-0.3,0.2-0.5,0.3-0.6L184,120.2z"/>
</g>
<g>
	<path class="st16" d="M96.9,148.2c-2,1.7-1.9,5.2,0.7,6.7c-0.3,1.5-0.9,2.8-1.8,3.9c-0.5,0.6-1.2,0.8-2,0.5
		c-1.2-0.4-2.2-0.3-3.4,0.4c-0.7,0.5-1.5,0.5-2.3-0.1c-2.6-1.9-5-6.5-4.4-10.2c0.4-2.4,2.1-3.9,4.3-3.7c0.4,0,0.9,0.2,1.3,0.4
		c1.1,0.7,2.2,0.7,3.1,0.2c0.8-0.4,1.8-0.3,2.7,0.1C95.9,146.9,96.5,147.4,96.9,148.2z"/>
	<path class="st16" d="M90.8,145.7c-0.4-2.2,1.1-4.2,2.9-4.1C94.3,143.3,92.9,146,90.8,145.7z"/>
</g>
</svg>
