<svg xmlns="http://www.w3.org/2000/svg" xmlns:xlink="http://www.w3.org/1999/xlink" viewBox="0 0 408.7 213.23"><defs><style>.cls-1{opacity:0.8;}.cls-2{fill:url(#linear-gradient);}.cls-3{fill:url(#linear-gradient-2);}.cls-4{fill:#fff;}</style><linearGradient id="linear-gradient" x1="198.1" y1="164.75" x2="195.16" y2="218.75" gradientUnits="userSpaceOnUse"><stop offset="0" stop-color="#dadefe"/><stop offset="1" stop-color="#dddafa"/></linearGradient><linearGradient id="linear-gradient-2" x1="362.82" y1="48.47" x2="309.92" y2="296.42" xlink:href="#linear-gradient"/></defs><title>logo_self</title><g id="Layer_2" data-name="Layer 2"><g id="Layer_1-2" data-name="Layer 1"><g class="cls-1"><path class="cls-2" d="M231,213.23H159.93a73,73,0,0,0,14.45-15,113.86,113.86,0,0,0,10.38-17,116.31,116.31,0,0,0,7.35-18.52,73.52,73.52,0,0,0,3.35-20.53,73.52,73.52,0,0,0,3.36,20.53,115.37,115.37,0,0,0,7.35,18.52,113.86,113.86,0,0,0,10.38,17A73,73,0,0,0,231,213.23Z"/></g><g class="cls-1"><path class="cls-3" d="M408.7,0a72.47,72.47,0,0,0-14.45,15,113.82,113.82,0,0,0-10.39,17,116.08,116.08,0,0,0-7.34,18.52,73.17,73.17,0,0,0-3.36,20.54,73.17,73.17,0,0,0-3.36-20.54A116.08,116.08,0,0,0,362.46,32a113.82,113.82,0,0,0-10.39-17A72.73,72.73,0,0,0,337.62,0Z"/></g><path class="cls-4" d="M390.93,213.23a147,147,0,0,1-20.34-6.31c-6.47-2.41-12.59-5.18-18.68-8a297.5,297.5,0,0,1-34.07-19.23,363.61,363.61,0,0,1-58.64-48A367.67,367.67,0,0,1,211.3,73a295.31,295.31,0,0,1-19.23-34.08c-2.84-6-5.61-12.16-8-18.63A152.5,152.5,0,0,1,177.69,0,152.5,152.5,0,0,1,198,6.36c6.48,2.41,12.6,5.17,18.64,8A299.16,299.16,0,0,1,250.71,33.6a367.67,367.67,0,0,1,58.72,47.9,363,363,0,0,1,48,58.64,296.15,296.15,0,0,1,19.23,34.08c2.81,6.08,5.57,12.2,8,18.68A145.56,145.56,0,0,1,390.93,213.23Z"/><path class="cls-4" d="M96.71,199.89a100.71,100.71,0,0,0,9.91,13.34A106.62,106.62,0,1,1,106.62,0a100.28,100.28,0,0,0-9.84,13.35,137.31,137.31,0,0,0-7.54,13.3,165.5,165.5,0,0,0-10.5,26.66,187,187,0,0,0-7.66,53.31,185.44,185.44,0,0,0,7.54,53.31,163.28,163.28,0,0,0,10.54,26.65A145.51,145.51,0,0,0,96.71,199.89Z"/></g></g></svg>