<?xml version="1.0" encoding="utf-8"?>
<!-- Generator: Adobe Illustrator 23.0.5, SVG Export Plug-In . SVG Version: 6.00 Build 0)  -->
<svg version="1.1" id="Layer_1" xmlns="http://www.w3.org/2000/svg" xmlns:xlink="http://www.w3.org/1999/xlink" x="0px" y="0px"
	 viewBox="0 0 793 793" style="enable-background:new 0 0 793 793;" xml:space="preserve">
<style type="text/css">
	.st0{fill:#353353;}
	.st1{fill:#FFFFFF;}
</style>
<title>logo</title>
<rect x="0.5" y="0.5" class="st0" width="792" height="792"/>
<g>
	<g id="Artwork">
		<path class="st1" d="M182.3,396.5c0,78.8,17.6,150.4,46.3,203c-90.6-0.4-163.8-91.1-163.8-203s73.3-202.6,163.8-203
			C200,246,182.3,317.6,182.3,396.5z"/>
		<polygon class="st1" points="686.2,445.7 686.2,599.4 314.4,193.5 460.7,193.5 		"/>
		<path class="st1" d="M728.2,193.5H601.8c35.4,25.1,62.1,59.1,79.4,103.2C688.2,259,703.5,224.4,728.2,193.5z"/>
		<path class="st1" d="M321.8,599.4h142.3c-35.4-25.1-76.1-83.6-93.4-127.7C363.7,509.5,357.3,563.9,321.8,599.4z"/>
	</g>
</g>
</svg>
