<svg xmlns="http://www.w3.org/2000/svg" viewBox="0 0 639.47 395.38"><defs><style>.cls-1{fill:#fff;}</style></defs><title>logo</title><g id="Layer_2" data-name="Layer 2"><g id="Artwork"><text/><path class="cls-1" d="M113.23,195.66c0,76,17,145,44.65,195.66C70.63,390.94,0,303.49,0,195.66S70.63.38,157.88,0C130.23,50.62,113.23,119.61,113.23,195.66Z"/><polygon class="cls-1" points="598.98 243.08 598.98 391.32 240.58 0 381.54 0 598.98 243.08"/><path class="cls-1" d="M639.47,0H517.63c34.1,24.18,59.93,57,76.48,99.5C601,63.1,615.67,29.78,639.47,0Z"/><path class="cls-1" d="M247.71,391.32H384.92c-34.11-24.18-73.43-80.63-90-123.12C288.09,304.59,282,357.05,247.71,391.32Z"/></g></g></svg>