<?xml version="1.0" encoding="utf-8"?>
<!-- Generator: Adobe Illustrator 23.0.5, SVG Export Plug-In . SVG Version: 6.00 Build 0)  -->
<svg version="1.1" id="Layer_1" xmlns="http://www.w3.org/2000/svg" xmlns:xlink="http://www.w3.org/1999/xlink" x="0px" y="0px"
	 viewBox="0 0 714.5 441.8" style="enable-background:new 0 0 714.5 441.8;" xml:space="preserve">
<style type="text/css">
	.st0{fill:#353353;}
</style>
<title>logo</title>
<g>
	<g id="Artwork">
		<path class="st0" d="M150.8,218.9c0,76,17,145,44.6,195.7c-87.3-0.4-157.9-87.8-157.9-195.7S108.2,23.6,195.4,23.2
			C167.8,73.8,150.8,142.8,150.8,218.9z"/>
		<polygon class="st0" points="636.5,266.3 636.5,414.5 278.1,23.2 419.1,23.2 		"/>
		<path class="st0" d="M677,23.2H555.2c34.1,24.2,59.9,57,76.5,99.5C638.5,86.3,653.2,53,677,23.2z"/>
		<path class="st0" d="M285.2,414.5h137.2c-34.1-24.2-73.4-80.6-90-123.1C325.6,327.8,319.5,380.3,285.2,414.5z"/>
	</g>
</g>
</svg>
